<svg width="645" height="138" viewBox="0 0 645 138" fill="none" xmlns="http://www.w3.org/2000/svg">
<g opacity="0.4">
<path d="M0 31.6184H644" stroke="#F2F2F2" stroke-dasharray="6"/>
<path d="M0 138.222H644" stroke="#F2F2F2" stroke-dasharray="6"/>
<path d="M0 66.7708H644" stroke="#F2F2F2" stroke-dasharray="6"/>
<path d="M0 102.688H644" stroke="#F2F2F2" stroke-dasharray="6"/>
<path d="M0.997559 57.1149L42.128 70.2071C72.5767 79.8991 105.839 74.1175 131.232 54.7193V54.7193C153.052 38.0502 180.87 31.3134 207.899 36.1529L210.954 36.6998C233.148 40.6737 256.035 37.0303 275.898 26.3607L285.802 21.0408C310.74 7.64583 340.186 5.44728 366.836 14.9905L379.284 19.4483C395.944 25.4141 413.888 26.8523 431.286 23.6159L445.684 20.9375C468.805 16.6364 492.702 20.6219 513.176 32.1936L530.508 41.9892C552.197 54.2473 577.68 57.9684 601.968 52.4237L643.966 42.8362" stroke="#00ACB8" stroke-width="2" stroke-dasharray="3"/>
<path fill-rule="evenodd" clip-rule="evenodd" d="M0.99685 57.1149L42.1273 70.2071C72.576 79.8991 105.839 74.1175 131.231 54.7193C153.051 38.0502 180.869 31.3134 207.898 36.1529L210.953 36.6998C233.148 40.6737 256.034 37.0303 275.897 26.3607L285.802 21.0408C310.739 7.64583 340.185 5.44729 366.835 14.9905L379.283 19.4483C395.943 25.4141 413.888 26.8523 431.285 23.6159L445.683 20.9375C468.804 16.6364 492.702 20.6219 513.176 32.1936L530.507 41.9892C552.196 54.2474 577.679 57.9684 601.967 52.4237L643.965 42.8362V137.076H0L0.99685 57.1149Z" fill="url(#paint0_linear_181_134)"/>
<path d="M0.997559 57.1149L42.128 70.207C72.5767 79.8991 105.839 74.1174 131.232 54.7193V54.7193C153.052 38.0502 180.87 31.3134 207.899 36.1528L210.981 36.7047C233.159 40.6756 256.028 37.0407 275.882 26.389L281.112 23.5828" stroke="#00ACB8" stroke-width="2"/>
<path opacity="0.5" fill-rule="evenodd" clip-rule="evenodd" d="M0.997559 57.1149L42.128 70.207C72.5767 79.8991 105.839 74.1174 131.232 54.7193C153.052 38.0502 180.87 31.3134 207.899 36.1528L210.981 36.7047C233.159 40.6756 256.028 37.0407 275.882 26.389L281.112 23.5828V137.076H0.997559V57.1149Z" fill="url(#paint1_linear_181_134)"/>
<circle cx="280.5" cy="25.5" r="4.5" fill="white" stroke="#00ACB8" stroke-width="2"/>
</g>
<defs>
<linearGradient id="paint0_linear_181_134" x1="0" y1="0" x2="0" y2="137.076" gradientUnits="userSpaceOnUse">
<stop stop-color="#00ACB8" stop-opacity="0.13"/>
<stop offset="1" stop-color="#00ACB8" stop-opacity="0.01"/>
</linearGradient>
<linearGradient id="paint1_linear_181_134" x1="0.997559" y1="23.5828" x2="0.997559" y2="137.076" gradientUnits="userSpaceOnUse">
<stop stop-color="#00ACB8" stop-opacity="0.45"/>
<stop offset="1" stop-color="#00ACB8" stop-opacity="0.01"/>
</linearGradient>
</defs>
</svg>
